<?xml version="1.0" encoding="UTF-8" standalone="no"?>
<!-- Created with Inkscape (http://www.inkscape.org/) -->

<svg
   xmlns:dc="http://purl.org/dc/elements/1.1/"
   xmlns:cc="http://creativecommons.org/ns#"
   xmlns:rdf="http://www.w3.org/1999/02/22-rdf-syntax-ns#"
   xmlns:svg="http://www.w3.org/2000/svg"
   xmlns="http://www.w3.org/2000/svg"
   xmlns:sodipodi="http://sodipodi.sourceforge.net/DTD/sodipodi-0.dtd"
   xmlns:inkscape="http://www.inkscape.org/namespaces/inkscape"
   width="16"
   height="16"
   viewBox="0 0 4.2333332 4.2333335"
   version="1.1"
   id="svg8"
   inkscape:version="0.92.3 (2405546, 2018-03-11)"
   sodipodi:docname="born.svg">
  <defs
     id="defs2" />
  <sodipodi:namedview
     id="base"
     pagecolor="#ffffff"
     bordercolor="#666666"
     borderopacity="1.0"
     inkscape:pageopacity="0.0"
     inkscape:pageshadow="2"
     inkscape:zoom="15.839192"
     inkscape:cx="2.2663658"
     inkscape:cy="10.220718"
     inkscape:document-units="mm"
     inkscape:current-layer="layer1"
     showgrid="false"
     units="px"
     inkscape:window-width="1366"
     inkscape:window-height="697"
     inkscape:window-x="1280"
     inkscape:window-y="256"
     inkscape:window-maximized="1" />
  <metadata
     id="metadata5">
    <rdf:RDF>
      <cc:Work
         rdf:about="">
        <dc:format>image/svg+xml</dc:format>
        <dc:type
           rdf:resource="http://purl.org/dc/dcmitype/StillImage" />
        <dc:title></dc:title>
      </cc:Work>
    </rdf:RDF>
  </metadata>
  <g
     inkscape:label="Camada 1"
     inkscape:groupmode="layer"
     id="layer1"
     transform="translate(0,-292.76665)">
    <g
       id="g73"
       transform="matrix(0.01239555,0,0,0.01239555,0.0353144,292.82818)">
      <g
         id="g71">
	<path
   id="path65"
   data-old_color="#000000"
   class="active-path"
   data-original="#000000"
   d="m 42.799,202.022 c 14.235,39.256 47.25,69.024 87.064,80.747 7.053,13.563 21.218,22.871 37.536,22.871 16.316,0 30.48,-9.308 37.531,-22.871 39.814,-11.723 72.831,-41.497 87.064,-80.747 23.646,-0.274 42.805,-19.596 42.805,-43.306 0,-23.712 -19.153,-43.031 -42.805,-43.303 -16.058,-44.297 -56.02,-76.573 -102.7,-84.386 -0.775,-0.292 -1.604,-0.509 -2.547,-0.562 -0.586,-0.031 -1.208,-0.026 -1.804,-0.053 -5.774,-0.772 -11.617,-1.255 -17.545,-1.255 -55.767,0 -106.078,35.161 -124.601,86.255 C 19.153,115.686 0,135.005 0,158.717 c 0,23.71 19.153,43.031 42.799,43.305 z m 98.497,24.807 c 0,-4.599 10.412,-11.539 26.098,-11.539 15.689,0 26.098,6.94 26.098,11.539 0,0.785 -0.411,1.655 -1.002,2.536 -7.034,-5.205 -15.693,-8.327 -25.096,-8.327 -9.402,0 -18.069,3.122 -25.099,8.327 -0.582,-0.881 -0.999,-1.745 -0.999,-2.536 z m 34.467,61.119 c -2.637,0.896 -5.421,1.497 -8.363,1.497 -2.942,0 -5.725,-0.601 -8.364,-1.497 -8.464,-2.891 -14.979,-9.931 -17.017,-18.742 -0.436,-1.888 -0.723,-3.839 -0.723,-5.864 0,-4.73 1.36,-9.112 3.575,-12.94 3.547,-6.149 9.456,-10.722 16.546,-12.403 1.927,-0.454 3.915,-0.755 5.982,-0.755 2.067,0 4.056,0.301 5.98,0.755 7.087,1.677 12.993,6.254 16.542,12.403 2.21,3.828 3.576,8.21 3.576,12.94 0,2.025 -0.28,3.966 -0.723,5.864 -2.034,8.812 -8.552,15.852 -17.011,18.742 z M 43.303,131.609 c 1.17,0 2.447,0.108 4.013,0.334 l 6.895,1.016 2.03,-6.668 c 9.856,-32.302 34.053,-57.965 64.47,-71.167 -6.787,15.04 2.431,33.584 17.803,40.813 19.156,9.013 50.148,10.188 63.215,-9.418 5.896,-8.833 0.664,-20.008 -6.465,-26.054 -9.978,-8.464 -24.469,-9.666 -36.316,-4.965 -9.59,3.808 -5.416,19.48 4.308,15.623 7.043,-2.79 13.455,-3 20.216,0.709 9.271,5.097 0.728,10.918 -5.753,12.78 -12.082,3.472 -29.906,0.638 -39.351,-7.839 -11.923,-10.705 3.436,-22.85 12.938,-26.174 10.304,-3.607 21.629,-4.406 32.529,-4.014 44.07,6.271 81.775,37.249 94.727,79.706 l 2.03,6.668 6.897,-1.016 c 1.566,-0.227 2.832,-0.334 4.014,-0.334 14.944,0 27.105,12.161 27.105,27.108 0,14.945 -12.161,27.105 -27.105,27.105 -1.182,0 -2.447,-0.105 -3.998,-0.332 l -6.908,-1.028 -2.035,6.676 c -10.325,33.855 -36.418,60.381 -68.893,72.953 0.006,-0.253 0.037,-0.496 0.037,-0.743 0,-8.032 -2.288,-15.521 -6.196,-21.922 3.918,-4.219 6.196,-9.192 6.196,-14.592 0,-15.562 -18.578,-27.743 -42.298,-27.743 -23.723,0 -42.298,12.182 -42.298,27.743 0,5.399 2.278,10.373 6.194,14.592 -3.902,6.401 -6.194,13.89 -6.194,21.922 0,0.247 0.032,0.49 0.037,0.743 C 92.668,251.519 66.581,224.993 56.255,191.138 l -2.036,-6.676 -6.905,1.028 c -1.566,0.227 -2.837,0.332 -4.013,0.332 -14.948,0 -27.103,-12.16 -27.103,-27.105 0.002,-14.947 12.157,-27.108 27.105,-27.108 z"
   inkscape:connector-curvature="0"
   style="fill:#657786" />

	<path
   id="path67"
   data-old_color="#000000"
   class="active-path"
   data-original="#000000"
   d="m 133.196,174.69 c 13.927,0 13.927,-21.601 0,-21.601 -13.927,0 -13.927,21.601 0,21.601 z"
   inkscape:connector-curvature="0"
   style="fill:#657786" />

	<path
   id="path69"
   data-old_color="#000000"
   class="active-path"
   data-original="#000000"
   d="m 201.598,173.34 c 13.927,0 13.927,-21.6 0,-21.6 -13.927,0 -13.927,21.6 0,21.6 z"
   inkscape:connector-curvature="0"
   style="fill:#657786" />

</g>
    </g>
  </g>
</svg>
