<?xml version="1.0" encoding="UTF-8" standalone="no"?>
<!-- Created with Inkscape (http://www.inkscape.org/) -->

<svg
   xmlns:dc="http://purl.org/dc/elements/1.1/"
   xmlns:cc="http://creativecommons.org/ns#"
   xmlns:rdf="http://www.w3.org/1999/02/22-rdf-syntax-ns#"
   xmlns:svg="http://www.w3.org/2000/svg"
   xmlns="http://www.w3.org/2000/svg"
   xmlns:sodipodi="http://sodipodi.sourceforge.net/DTD/sodipodi-0.dtd"
   xmlns:inkscape="http://www.inkscape.org/namespaces/inkscape"
   width="16"
   height="16"
   viewBox="0 0 4.2333332 4.2333335"
   version="1.1"
   id="svg8"
   inkscape:version="0.92.3 (2405546, 2018-03-11)"
   sodipodi:docname="comment.svg">
  <defs
     id="defs2" />
  <sodipodi:namedview
     id="base"
     pagecolor="#ffffff"
     bordercolor="#666666"
     borderopacity="1.0"
     inkscape:pageopacity="0.0"
     inkscape:pageshadow="2"
     inkscape:zoom="22.4"
     inkscape:cx="4.21334"
     inkscape:cy="9.7099209"
     inkscape:document-units="mm"
     inkscape:current-layer="layer1"
     showgrid="false"
     units="px"
     inkscape:window-width="1366"
     inkscape:window-height="697"
     inkscape:window-x="1280"
     inkscape:window-y="256"
     inkscape:window-maximized="1" />
  <metadata
     id="metadata5">
    <rdf:RDF>
      <cc:Work
         rdf:about="">
        <dc:format>image/svg+xml</dc:format>
        <dc:type
           rdf:resource="http://purl.org/dc/dcmitype/StillImage" />
        <dc:title></dc:title>
      </cc:Work>
    </rdf:RDF>
  </metadata>
  <g
     inkscape:label="Camada 1"
     inkscape:groupmode="layer"
     id="layer1"
     transform="translate(0,-292.76664)">
    <g
       id="g84"
       transform="matrix(0.00811685,0,0,0.00811685,0.06030283,292.8647)">
      <g
         id="g82">
	<path
   id="path80"
   data-old_color="#000000"
   class="active-path"
   data-original="#000000"
   d="M 477.364,127.481 C 454.525,99.409 423.5,77.233 384.292,60.959 345.084,44.685 302.256,36.549 255.813,36.549 c -46.442,0 -89.269,8.136 -128.478,24.41 C 88.126,77.233 57.102,99.405 34.261,127.481 11.419,155.555 0,186.15 0,219.269 c 0,28.549 8.61,55.299 25.837,80.232 17.227,24.934 40.778,45.874 70.664,62.813 -2.096,7.611 -4.57,14.842 -7.426,21.7 -2.855,6.851 -5.424,12.467 -7.708,16.847 -2.286,4.374 -5.376,9.23 -9.281,14.555 -3.899,5.332 -6.849,9.093 -8.848,11.283 -1.997,2.19 -5.28,5.801 -9.851,10.848 -4.565,5.041 -7.517,8.33 -8.848,9.853 -0.193,0.097 -0.953,0.948 -2.285,2.574 -1.331,1.615 -1.999,2.419 -1.999,2.419 l -1.713,2.57 c -0.953,1.42 -1.381,2.327 -1.287,2.703 0.096,0.384 -0.094,1.335 -0.57,2.854 -0.477,1.526 -0.428,2.669 0.142,3.429 v 0.287 c 0.762,3.234 2.283,5.853 4.567,7.851 2.284,1.992 4.858,2.991 7.71,2.991 h 1.429 c 12.375,-1.526 23.223,-3.613 32.548,-6.279 49.87,-12.751 93.649,-35.782 131.334,-69.094 14.274,1.523 28.074,2.283 41.396,2.283 46.442,0 89.271,-8.135 128.479,-24.414 39.208,-16.276 70.233,-38.444 93.072,-66.517 22.843,-28.072 34.263,-58.67 34.263,-91.789 10e-4,-33.114 -11.418,-63.713 -34.261,-91.787 z m -32.12,164.594 c -19.896,22.456 -46.733,40.303 -80.517,53.529 -33.784,13.223 -70.093,19.842 -108.921,19.842 -11.609,0 -23.98,-0.76 -37.113,-2.286 l -16.274,-1.708 -12.277,10.852 c -23.408,20.558 -49.582,36.829 -78.513,48.821 8.754,-15.414 15.416,-31.785 19.986,-49.102 l 7.708,-27.412 -24.838,-14.27 C 89.741,316.248 70.567,299.548 56.955,280.227 43.345,260.912 36.543,240.589 36.543,219.273 c 0,-26.077 9.945,-50.343 29.834,-72.803 19.895,-22.458 46.729,-40.303 80.515,-53.531 33.786,-13.229 70.089,-19.849 108.92,-19.849 38.828,0 75.13,6.617 108.914,19.845 33.783,13.229 60.62,31.073 80.517,53.531 19.89,22.46 29.834,46.727 29.834,72.802 0,26.075 -9.944,50.347 -29.833,72.807 z"
   inkscape:connector-curvature="0"
   style="fill:#657786" />

</g>
    </g>
  </g>
</svg>
