<?xml version="1.0" encoding="UTF-8" standalone="no"?>
<!-- Created with Inkscape (http://www.inkscape.org/) -->

<svg
   xmlns:dc="http://purl.org/dc/elements/1.1/"
   xmlns:cc="http://creativecommons.org/ns#"
   xmlns:rdf="http://www.w3.org/1999/02/22-rdf-syntax-ns#"
   xmlns:svg="http://www.w3.org/2000/svg"
   xmlns="http://www.w3.org/2000/svg"
   xmlns:sodipodi="http://sodipodi.sourceforge.net/DTD/sodipodi-0.dtd"
   xmlns:inkscape="http://www.inkscape.org/namespaces/inkscape"
   width="16"
   height="16"
   viewBox="0 0 4.2333332 4.2333335"
   version="1.1"
   id="svg8"
   inkscape:version="0.92.3 (2405546, 2018-03-11)"
   sodipodi:docname="heart.svg">
  <defs
     id="defs2" />
  <sodipodi:namedview
     id="base"
     pagecolor="#ffffff"
     bordercolor="#666666"
     borderopacity="1.0"
     inkscape:pageopacity="0.0"
     inkscape:pageshadow="2"
     inkscape:zoom="7.9195959"
     inkscape:cx="9.162572"
     inkscape:cy="10.011314"
     inkscape:document-units="mm"
     inkscape:current-layer="layer1"
     showgrid="false"
     units="px"
     inkscape:window-width="1366"
     inkscape:window-height="697"
     inkscape:window-x="1280"
     inkscape:window-y="256"
     inkscape:window-maximized="1" />
  <metadata
     id="metadata5">
    <rdf:RDF>
      <cc:Work
         rdf:about="">
        <dc:format>image/svg+xml</dc:format>
        <dc:type
           rdf:resource="http://purl.org/dc/dcmitype/StillImage" />
        <dc:title></dc:title>
      </cc:Work>
    </rdf:RDF>
  </metadata>
  <g
     inkscape:label="Camada 1"
     inkscape:groupmode="layer"
     id="layer1"
     transform="translate(0,-292.76664)">
    <g
       id="g263"
       transform="matrix(0.00786407,0,0,0.00786407,0.13798122,293.08506)">
      <path
         id="path261"
         data-old_color="#000000"
         class="active-path"
         data-original="#000000"
         d="m 256,455.51562 c -7.28906,0 -14.31641,-2.64062 -19.79297,-7.4375 -20.68359,-18.08593 -40.625,-35.08203 -58.21875,-50.07421 l -0.0898,-0.0781 C 126.31641,353.96875 81.773438,316.00781 50.78125,278.61328 16.136719,236.80859 0,197.17188 0,153.87109 0,111.80078 14.425781,72.988281 40.617188,44.578125 67.121094,15.832031 103.48828,0 143.03125,0 172.58594,0 199.65234,9.34375 223.47656,27.769531 235.5,37.070312 246.39844,48.453125 256,61.730469 265.60547,48.453125 276.5,37.070312 288.52734,27.769531 312.35156,9.34375 339.41797,0 368.97266,0 408.51172,0 444.88281,15.832031 471.38672,44.578125 497.57812,72.988281 512,111.80078 512,153.87109 c 0,43.30079 -16.13281,82.9375 -50.77734,124.73828 -30.99219,37.39844 -75.53125,75.35547 -127.10547,119.3086 -17.625,15.01562 -37.59766,32.03906 -58.32813,50.16797 -5.47265,4.78906 -12.5039,7.42968 -19.78906,7.42968 z M 143.03125,29.992188 c -31.06641,0 -59.605469,12.398437 -80.367188,34.914062 -21.070312,22.855469 -32.675781,54.44922 -32.675781,88.96484 0,36.41797 13.535157,68.98828 43.882813,105.60547 29.332036,35.39453 72.960936,72.57422 123.476566,115.625 l 0.0937,0.0781 c 17.66015,15.05078 37.67968,32.11328 58.51562,50.33203 20.96094,-18.25391 41.01172,-35.34375 58.70703,-50.41797 50.51172,-43.05078 94.13672,-80.22266 123.46875,-115.61719 30.34375,-36.61719 43.87891,-69.1875 43.87891,-105.60547 0,-34.51562 -11.60547,-66.109371 -32.67578,-88.96484 -20.75782,-22.515625 -49.30078,-34.914062 -80.36328,-34.914062 -22.75782,0 -43.65235,7.234374 -62.10157,21.5 -16.4414,12.71875 -27.89453,28.796874 -34.60937,40.046874 -3.45313,5.785157 -9.53125,9.238278 -16.26172,9.238278 -6.73047,0 -12.80859,-3.453121 -16.26172,-9.238278 -6.71094,-11.25 -18.16406,-27.328124 -34.60937,-40.046874 -18.44922,-14.265626 -39.34375,-21.5 -62.09766,-21.5 z m 0,0"
         inkscape:connector-curvature="0"
         style="fill:#657786" />
    </g>
  </g>
</svg>
