<?xml version="1.0" encoding="UTF-8" standalone="no"?>
<!-- Created with Inkscape (http://www.inkscape.org/) -->

<svg
   xmlns:dc="http://purl.org/dc/elements/1.1/"
   xmlns:cc="http://creativecommons.org/ns#"
   xmlns:rdf="http://www.w3.org/1999/02/22-rdf-syntax-ns#"
   xmlns:svg="http://www.w3.org/2000/svg"
   xmlns="http://www.w3.org/2000/svg"
   xmlns:sodipodi="http://sodipodi.sourceforge.net/DTD/sodipodi-0.dtd"
   xmlns:inkscape="http://www.inkscape.org/namespaces/inkscape"
   width="16"
   height="16"
   viewBox="0 0 4.2333332 4.2333335"
   version="1.1"
   id="svg8"
   inkscape:version="0.92.3 (2405546, 2018-03-11)"
   sodipodi:docname="message.svg">
  <defs
     id="defs2" />
  <sodipodi:namedview
     id="base"
     pagecolor="#ffffff"
     bordercolor="#666666"
     borderopacity="1.0"
     inkscape:pageopacity="0.0"
     inkscape:pageshadow="2"
     inkscape:zoom="11.2"
     inkscape:cx="4.4602928"
     inkscape:cy="13.033497"
     inkscape:document-units="mm"
     inkscape:current-layer="layer1"
     showgrid="false"
     units="px"
     inkscape:window-width="1366"
     inkscape:window-height="697"
     inkscape:window-x="1280"
     inkscape:window-y="256"
     inkscape:window-maximized="1" />
  <metadata
     id="metadata5">
    <rdf:RDF>
      <cc:Work
         rdf:about="">
        <dc:format>image/svg+xml</dc:format>
        <dc:type
           rdf:resource="http://purl.org/dc/dcmitype/StillImage" />
        <dc:title></dc:title>
      </cc:Work>
    </rdf:RDF>
  </metadata>
  <g
     inkscape:label="Camada 1"
     inkscape:groupmode="layer"
     id="layer1"
     transform="translate(0,-292.76664)">
    <g
       id="g357"
       transform="matrix(0.00851583,0,0,0.00851583,0.06146483,292.84437)">
      <g
         id="g355">
	<g
   id="g353">
		<path
   id="path349"
   data-old_color="#000000"
   class="active-path"
   data-original="#000000"
   d="M 424.3,57.75 H 59.1 C 26.5,57.75 0,84.25 0,116.85 v 249.6 c 0,32.6 26.5,59.1 59.1,59.1 h 365.1 c 32.6,0 59.1,-26.5 59.1,-59.1 v -249.5 c 0.1,-32.6 -26.4,-59.2 -59,-59.2 z m 32.1,308.7 c 0,17.7 -14.4,32.1 -32.1,32.1 H 59.1 c -17.7,0 -32.1,-14.4 -32.1,-32.1 v -249.5 c 0,-17.7 14.4,-32.1 32.1,-32.1 h 365.1 c 17.7,0 32.1,14.4 32.1,32.1 v 249.5 z"
   inkscape:connector-curvature="0"
   style="fill:#657786" />

		<path
   id="path351"
   data-old_color="#000000"
   class="active-path"
   data-original="#000000"
   d="m 304.8,238.55 118.2,-106 c 5.5,-5 6,-13.5 1,-19.1 -5,-5.5 -13.5,-6 -19.1,-1 l -163,146.3 -31.8,-28.4 c -0.1,-0.1 -0.2,-0.2 -0.2,-0.3 -0.7,-0.7 -1.4,-1.3 -2.2,-1.9 L 78.3,112.35 c -5.6,-5 -14.1,-4.5 -19.1,1.1 -5,5.6 -4.5,14.1 1.1,19.1 l 119.6,106.9 -119.1,111.5 c -5.4,5.1 -5.7,13.6 -0.6,19.1 2.7,2.8 6.3,4.3 9.9,4.3 3.3,0 6.6,-1.2 9.2,-3.6 l 120.9,-113.1 32.8,29.3 c 2.6,2.3 5.8,3.4 9,3.4 3.2,0 6.5,-1.2 9,-3.5 l 33.7,-30.2 120.2,114.2 c 2.6,2.5 6,3.7 9.3,3.7 3.6,0 7.1,-1.4 9.8,-4.2 5.1,-5.4 4.9,-14 -0.5,-19.1 z"
   inkscape:connector-curvature="0"
   style="fill:#657786" />

	</g>

</g>
    </g>
  </g>
</svg>
