<?xml version="1.0" encoding="UTF-8" standalone="no"?>
<!-- Created with Inkscape (http://www.inkscape.org/) -->

<svg
   xmlns:dc="http://purl.org/dc/elements/1.1/"
   xmlns:cc="http://creativecommons.org/ns#"
   xmlns:rdf="http://www.w3.org/1999/02/22-rdf-syntax-ns#"
   xmlns:svg="http://www.w3.org/2000/svg"
   xmlns="http://www.w3.org/2000/svg"
   xmlns:sodipodi="http://sodipodi.sourceforge.net/DTD/sodipodi-0.dtd"
   xmlns:inkscape="http://www.inkscape.org/namespaces/inkscape"
   width="10"
   height="20"
   viewBox="0 0 2.6458332 5.2916668"
   version="1.1"
   id="svg3881"
   inkscape:version="0.92.3 (2405546, 2018-03-11)"
   sodipodi:docname="more2.svg">
  <defs
     id="defs3875" />
  <sodipodi:namedview
     id="base"
     pagecolor="#ffffff"
     bordercolor="#666666"
     borderopacity="1.0"
     inkscape:pageopacity="0.0"
     inkscape:pageshadow="2"
     inkscape:zoom="15.839192"
     inkscape:cx="16.290646"
     inkscape:cy="12.336577"
     inkscape:document-units="mm"
     inkscape:current-layer="layer1"
     showgrid="false"
     units="px"
     inkscape:window-width="1280"
     inkscape:window-height="993"
     inkscape:window-x="0"
     inkscape:window-y="0"
     inkscape:window-maximized="1" />
  <metadata
     id="metadata3878">
    <rdf:RDF>
      <cc:Work
         rdf:about="">
        <dc:format>image/svg+xml</dc:format>
        <dc:type
           rdf:resource="http://purl.org/dc/dcmitype/StillImage" />
        <dc:title></dc:title>
      </cc:Work>
    </rdf:RDF>
  </metadata>
  <g
     inkscape:label="Camada 1"
     inkscape:groupmode="layer"
     id="layer1"
     transform="translate(0,-291.70832)">
    <g
       id="g3861"
       transform="matrix(0.08883165,0,0,0.08479476,-1.3118978,291.82164)">
      <g
         id="g3859">
        <path
           id="path3853"
           data-old_color="#000000"
           class="active-path"
           data-original="#000000"
           d="m 30,16 c 4.411,0 8,-3.589 8,-8 0,-4.411 -3.589,-8 -8,-8 -4.411,0 -8,3.589 -8,8 0,4.411 3.589,8 8,8 z M 30,2 c 3.309,0 6,2.691 6,6 0,3.309 -2.691,6 -6,6 -3.309,0 -6,-2.691 -6,-6 0,-3.309 2.691,-6 6,-6 z"
           inkscape:connector-curvature="0"
           style="fill:#667580" />
        <path
           id="path3855"
           data-old_color="#000000"
           class="active-path"
           data-original="#000000"
           d="m 30,44 c -4.411,0 -8,3.589 -8,8 0,4.411 3.589,8 8,8 4.411,0 8,-3.589 8,-8 0,-4.411 -3.589,-8 -8,-8 z m 0,14 c -3.309,0 -6,-2.691 -6,-6 0,-3.309 2.691,-6 6,-6 3.309,0 6,2.691 6,6 0,3.309 -2.691,6 -6,6 z"
           inkscape:connector-curvature="0"
           style="fill:#667580" />
        <path
           id="path3857"
           data-old_color="#000000"
           class="active-path"
           data-original="#000000"
           d="m 30,22 c -4.411,0 -8,3.589 -8,8 0,4.411 3.589,8 8,8 4.411,0 8,-3.589 8,-8 0,-4.411 -3.589,-8 -8,-8 z m 0,14 c -3.309,0 -6,-2.691 -6,-6 0,-3.309 2.691,-6 6,-6 3.309,0 6,2.691 6,6 0,3.309 -2.691,6 -6,6 z"
           inkscape:connector-curvature="0"
           style="fill:#667580" />
      </g>
    </g>
  </g>
</svg>
