<?xml version="1.0" encoding="UTF-8" standalone="no"?>
<!-- Created with Inkscape (http://www.inkscape.org/) -->

<svg
   xmlns:dc="http://purl.org/dc/elements/1.1/"
   xmlns:cc="http://creativecommons.org/ns#"
   xmlns:rdf="http://www.w3.org/1999/02/22-rdf-syntax-ns#"
   xmlns:svg="http://www.w3.org/2000/svg"
   xmlns="http://www.w3.org/2000/svg"
   xmlns:sodipodi="http://sodipodi.sourceforge.net/DTD/sodipodi-0.dtd"
   xmlns:inkscape="http://www.inkscape.org/namespaces/inkscape"
   width="16"
   height="16"
   viewBox="0 0 4.2333332 4.2333335"
   version="1.1"
   id="svg8"
   inkscape:version="0.92.3 (2405546, 2018-03-11)"
   sodipodi:docname="placeholder.svg">
  <defs
     id="defs2" />
  <sodipodi:namedview
     id="base"
     pagecolor="#ffffff"
     bordercolor="#666666"
     borderopacity="1.0"
     inkscape:pageopacity="0.0"
     inkscape:pageshadow="2"
     inkscape:zoom="7.9195959"
     inkscape:cx="45.306826"
     inkscape:cy="-14.605068"
     inkscape:document-units="mm"
     inkscape:current-layer="layer1"
     showgrid="false"
     units="px"
     inkscape:window-width="1366"
     inkscape:window-height="697"
     inkscape:window-x="1280"
     inkscape:window-y="256"
     inkscape:window-maximized="1" />
  <metadata
     id="metadata5">
    <rdf:RDF>
      <cc:Work
         rdf:about="">
        <dc:format>image/svg+xml</dc:format>
        <dc:type
           rdf:resource="http://purl.org/dc/dcmitype/StillImage" />
        <dc:title></dc:title>
      </cc:Work>
    </rdf:RDF>
  </metadata>
  <g
     inkscape:label="Camada 1"
     inkscape:groupmode="layer"
     id="layer1"
     transform="translate(0,-292.76665)">
    <g
       id="g106"
       transform="matrix(0.00854858,0,0,0.00854858,0.20537135,292.78247)">
      <g
         id="g104">
	<g
   id="g102">
		<path
   id="path98"
   data-old_color="#000000"
   class="active-path"
   data-original="#000000"
   d="M 238.4,0 C 133,0 47.2,85.8 47.2,191.2 c 0,12 1.1,24.1 3.4,35.9 0.1,0.7 0.5,2.8 1.3,6.4 2.9,12.9 7.2,25.6 12.8,37.7 20.6,48.5 65.9,123 165.3,202.8 2.5,2 5.5,3 8.5,3 3,0 6,-1 8.5,-3 99.3,-79.8 144.7,-154.3 165.3,-202.8 5.6,-12.1 9.9,-24.7 12.8,-37.7 0.8,-3.6 1.2,-5.7 1.3,-6.4 2.2,-11.8 3.4,-23.9 3.4,-35.9 C 429.6,85.8 343.8,0 238.4,0 Z m 161.2,222.4 c 0,0.2 -0.1,0.4 -0.1,0.6 -0.1,0.5 -0.4,2 -0.9,4.3 0,0.1 0,0.1 0,0.2 -2.5,11.2 -6.2,22.1 -11.1,32.6 -0.1,0.1 -0.1,0.3 -0.2,0.4 C 368.6,304.8 327.6,372.4 238.4,446.1 149.2,372.4 108.2,304.8 89.5,260.5 c -0.1,-0.1 -0.1,-0.3 -0.2,-0.4 -4.8,-10.4 -8.5,-21.4 -11.1,-32.6 0,-0.1 0,-0.1 0,-0.2 -0.6,-2.3 -0.8,-3.8 -0.9,-4.3 0,-0.2 -0.1,-0.4 -0.1,-0.7 -2,-10.3 -3,-20.7 -3,-31.2 0,-90.5 73.7,-164.2 164.2,-164.2 90.5,0 164.2,73.7 164.2,164.2 0,10.6 -1,21.1 -3,31.3 z"
   inkscape:connector-curvature="0"
   style="fill:#657786" />

		<path
   id="path100"
   data-old_color="#000000"
   class="active-path"
   data-original="#000000"
   d="m 238.4,71.9 c -66.9,0 -121.4,54.5 -121.4,121.4 0,66.9 54.5,121.4 121.4,121.4 66.9,0 121.4,-54.5 121.4,-121.4 0,-66.9 -54.5,-121.4 -121.4,-121.4 z m 0,215.8 c -52.1,0 -94.4,-42.4 -94.4,-94.4 0,-52 42.4,-94.4 94.4,-94.4 52,0 94.4,42.4 94.4,94.4 0,52 -42.3,94.4 -94.4,94.4 z"
   inkscape:connector-curvature="0"
   style="fill:#657786" />

	</g>

</g>
    </g>
  </g>
</svg>
