<?xml version="1.0" encoding="UTF-8" standalone="no"?>
<!-- Created with Inkscape (http://www.inkscape.org/) -->

<svg
   xmlns:dc="http://purl.org/dc/elements/1.1/"
   xmlns:cc="http://creativecommons.org/ns#"
   xmlns:rdf="http://www.w3.org/1999/02/22-rdf-syntax-ns#"
   xmlns:svg="http://www.w3.org/2000/svg"
   xmlns="http://www.w3.org/2000/svg"
   xmlns:sodipodi="http://sodipodi.sourceforge.net/DTD/sodipodi-0.dtd"
   xmlns:inkscape="http://www.inkscape.org/namespaces/inkscape"
   width="16"
   height="16"
   viewBox="0 0 4.2333332 4.2333335"
   version="1.1"
   id="svg8"
   inkscape:version="0.92.3 (2405546, 2018-03-11)"
   sodipodi:docname="update.svg">
  <defs
     id="defs2" />
  <sodipodi:namedview
     id="base"
     pagecolor="#ffffff"
     bordercolor="#666666"
     borderopacity="1.0"
     inkscape:pageopacity="0.0"
     inkscape:pageshadow="2"
     inkscape:zoom="11.2"
     inkscape:cx="0.44733594"
     inkscape:cy="13.863616"
     inkscape:document-units="mm"
     inkscape:current-layer="layer1"
     showgrid="false"
     units="px"
     inkscape:window-width="1366"
     inkscape:window-height="697"
     inkscape:window-x="1280"
     inkscape:window-y="256"
     inkscape:window-maximized="1" />
  <metadata
     id="metadata5">
    <rdf:RDF>
      <cc:Work
         rdf:about="">
        <dc:format>image/svg+xml</dc:format>
        <dc:type
           rdf:resource="http://purl.org/dc/dcmitype/StillImage" />
        <dc:title></dc:title>
      </cc:Work>
    </rdf:RDF>
  </metadata>
  <g
     inkscape:label="Camada 1"
     inkscape:groupmode="layer"
     id="layer1"
     transform="translate(0,-292.76664)">
    <g
       id="g178"
       transform="matrix(0.01190696,0,0,0.01190696,0.07750579,292.86605)">
      <g
         id="g176">
	<g
   id="g174">
		<path
   id="path170"
   data-old_color="#000000"
   class="active-path"
   data-original="#000000"
   d="m 334.485,37.463 c -6.753,-1.449 -13.396,2.853 -14.842,9.603 l -9.084,42.391 C 281.637,40.117 228.551,9.155 170.368,9.155 c -89.603,0 -162.5,72.896 -162.5,162.5 0,6.903 5.596,12.5 12.5,12.5 6.903,0 12.5,-5.597 12.5,-12.5 0,-75.818 61.682,-137.5 137.5,-137.5 49.429,0 94.515,26.403 118.925,68.443 l -41.674,-8.931 c -6.752,-1.447 -13.396,2.854 -14.841,9.604 -1.446,6.75 2.854,13.396 9.604,14.842 l 71.536,15.33 c 1.215,0.261 2.449,0.336 3.666,0.234 2.027,-0.171 4.003,-0.836 5.743,-1.962 2.784,-1.801 4.738,-4.634 5.433,-7.875 l 15.331,-71.536 c 1.444,-6.749 -2.856,-13.393 -9.606,-14.841 z"
   inkscape:connector-curvature="0"
   style="fill:#657786" />

		<path
   id="path172"
   data-old_color="#000000"
   class="active-path"
   data-original="#000000"
   d="m 321.907,155.271 c -6.899,0.228 -12.309,6.006 -12.081,12.905 1.212,36.708 -11.942,71.689 -37.042,98.504 -25.099,26.812 -59.137,42.248 -95.844,43.46 -1.53,0.05 -3.052,0.075 -4.576,0.075 -47.896,-0.002 -92.018,-24.877 -116.936,-65.18 l 43.447,11.65 c 6.668,1.787 13.523,-2.168 15.311,-8.837 1.788,-6.668 -2.168,-13.522 -8.836,-15.312 L 34.686,213.59 c -3.202,-0.857 -6.615,-0.409 -9.485,1.247 -2.872,1.656 -4.967,4.387 -5.826,7.589 L 0.43,293.092 c -1.788,6.668 2.168,13.522 8.836,15.311 1.085,0.291 2.173,0.431 3.245,0.431 5.518,0 10.569,-3.684 12.066,-9.267 L 35.226,259.85 c 29.624,46.647 81.189,75.367 137.132,75.365 1.797,0 3.604,-0.029 5.408,-0.089 43.381,-1.434 83.608,-19.674 113.271,-51.362 29.663,-31.688 45.209,-73.031 43.776,-116.413 -0.227,-6.898 -6.008,-12.325 -12.906,-12.08 z"
   inkscape:connector-curvature="0"
   style="fill:#657786" />

	</g>

</g>
    </g>
  </g>
</svg>
